<svg width="38" height="54" viewBox="0 0 38 54" fill="none" xmlns="http://www.w3.org/2000/svg">
<path fill-rule="evenodd" clip-rule="evenodd" d="M6.70877 0.149851C5.40529 0.548092 4.5908 1.33221 3.49035 3.24875L2.63952 4.73031H1.67735C0.163763 4.73031 0.0857125 4.88507 0.0207822 8.01207C-0.0293453 10.4252 -0.0106733 10.61 0.327267 11.0426C0.569494 11.3524 0.845027 11.5031 1.16934 11.5031C1.74968 11.5031 1.69568 11.1999 2.17828 17.1754C2.68006 23.3886 2.68091 23.3984 2.93827 26.0647C3.06864 27.415 3.44459 31.8343 3.77345 35.8853C4.64059 46.5641 5.012 50.4482 5.23472 51.1707C5.51816 52.0896 6.48219 53.1395 7.46606 53.6006L8.31655 53.9992L18.8299 54C25.8314 54.0003 29.5614 53.9397 29.9962 53.8182C30.772 53.6013 32.1419 52.3661 32.5377 51.5267C32.8365 50.893 33.3477 46.0233 34.304 34.7C34.5832 31.394 34.9603 27.0891 35.142 25.1334C35.3235 23.1778 35.6275 19.6347 35.8174 17.26C36.302 11.197 36.249 11.5031 36.8129 11.5031C37.0749 11.5031 37.4223 11.3463 37.6016 11.1472C37.8819 10.836 37.9288 10.4642 37.9759 8.18834C38.0294 5.59807 38.0277 5.58317 37.605 5.15784C37.2548 4.80515 37.0196 4.73031 36.2631 4.73031H35.3457L34.5312 3.25553C34.0833 2.44431 33.437 1.49612 33.0952 1.14833C31.9369 -0.0301371 32.1562 -0.0125276 18.9254 0.0038965C12.443 0.0118546 6.94545 0.0775508 6.70877 0.149851ZM31.2136 2.59484C31.502 2.77059 31.9712 3.32308 32.2561 3.82241L32.7742 4.73031H18.9991H5.22412L5.59284 4.08994C5.79571 3.73792 6.08672 3.27432 6.23962 3.05979C6.8499 2.20421 6.94965 2.19778 19.2504 2.23791C30.1288 2.2733 30.7146 2.29074 31.2136 2.59484ZM19.6289 7.09893L35.6512 7.10079V8.15904V9.2173H18.9981H2.34498V8.0522V6.88711L2.97578 6.99209C3.32281 7.04983 10.8165 7.09791 19.6289 7.09893ZM33.9571 12.1381C33.9504 12.4874 33.7802 14.6779 33.5786 17.006L33.2121 21.239L18.9934 21.2824L4.77465 21.3256L4.39449 16.6261C4.1854 14.0412 4.01719 11.8313 4.02072 11.7148C4.02577 11.5471 7.13687 11.5031 18.9981 11.5031H33.9691L33.9571 12.1381ZM32.9026 24.4138C32.8456 24.9026 32.4905 28.922 32.1135 33.3455C31.7365 37.769 31.3752 41.9215 31.3108 42.5734L31.1935 43.7587L18.9737 43.8022L6.75368 43.8455L6.64788 42.5323C6.30287 38.2527 5.17921 25.1608 5.09291 24.4138L4.99014 23.5249H18.9981H33.006L32.9026 24.4138ZM20.7971 25.0552C15.9671 26.2741 11.0921 32.5752 11.0921 37.5991C11.0921 40.3597 12.6951 42.2432 15.2178 42.4471C19.263 42.7741 24.7638 38.0394 26.4772 32.7559C27.619 29.2354 26.9675 26.4484 24.7654 25.4338C23.7045 24.9448 21.9119 24.7738 20.7971 25.0552ZM23.3119 27.3161C23.3252 27.3263 23.1911 27.807 23.014 28.3842C22.4057 30.3663 21.0531 31.6688 18.83 32.4142C18.0801 32.6655 17.1462 33.0513 16.7546 33.2718C15.8295 33.7923 14.5813 35.0033 13.9281 36.0141L13.4095 36.8165L13.5189 36.0546C13.8228 33.9359 16.3518 30.2047 18.4934 28.715C19.6662 27.8993 20.3424 27.5835 21.4372 27.34C22.2343 27.1629 23.0961 27.1519 23.3119 27.3161ZM24.3856 31.9299C23.9505 33.2859 23.7012 33.7953 22.8646 35.0387C20.9159 37.9347 17.9437 40.0612 15.708 40.1592C15.3061 40.1769 14.9282 40.1416 14.868 40.081C14.7245 39.9368 15.2453 38.3333 15.6806 37.5785C15.8686 37.2525 16.2946 36.6934 16.6271 36.336C17.248 35.6689 18.9229 34.7002 19.4558 34.6998C19.6205 34.6998 20.2345 34.4714 20.8203 34.1924C21.9464 33.6563 23.8892 31.9348 24.3261 31.0862C24.7424 30.2775 24.7737 30.7208 24.3856 31.9299ZM30.9412 46.5345C30.9412 47.7157 30.5426 50.416 30.3096 50.8131C29.7319 51.7973 29.6852 51.8014 18.9052 51.8014C8.24069 51.8014 8.26676 51.8036 7.66691 50.8821C7.3643 50.417 7.169 49.4131 6.98161 47.3567L6.87732 46.2138H18.9093C30.6048 46.2138 30.9412 46.2228 30.9412 46.5345Z" fill="black"/>
</svg>
