<svg xmlns="http://www.w3.org/2000/svg" width="23" height="33" fill="none" viewBox="0 0 23 33"><path fill="#134563" d="M11.5 32.4234L10.8953 31.6844C10.4922 31.1469 0.212524 19.1203 0.212524 11.9313C0.212524 5.68282 5.31877 0.643753 11.5 0.643753C17.6813 0.643753 22.7875 5.75 22.7875 11.9313C22.7875 19.1203 12.5078 31.2141 12.1047 31.6844L11.5 32.4234ZM11.5 2.18907C6.12502 2.18907 1.82502 6.55625 1.82502 11.8641C1.82502 17.5078 9.28284 27.1156 11.5 29.8703C13.7172 27.1156 21.175 17.575 21.175 11.8641C21.175 6.55625 16.875 2.18907 11.5 2.18907Z"/><path fill="#134563" d="M11.5001 16.2313C9.14851 16.2313 7.20007 14.2828 7.20007 11.9313C7.20007 9.57969 9.14851 7.63126 11.5001 7.63126C13.8516 7.63126 15.8001 9.57969 15.8001 11.9313C15.8001 14.2828 13.8516 16.2313 11.5001 16.2313ZM11.5001 9.24376C10.0219 9.24376 8.81257 10.4531 8.81257 11.9313C8.81257 13.4094 10.0219 14.6188 11.5001 14.6188C12.9782 14.6188 14.1876 13.4094 14.1876 11.9313C14.1876 10.4531 12.9782 9.24376 11.5001 9.24376Z"/></svg>